<svg width="34" height="34" viewBox="0 0 34 34" fill="none" xmlns="http://www.w3.org/2000/svg">
<path d="M27.95 13.2456C27.95 12.8314 27.6142 12.4956 27.2 12.4956C26.7858 12.4956 26.45 12.8314 26.45 13.2456H27.95ZM4.85565 23.0032C4.61134 22.6687 4.14213 22.5956 3.80764 22.84C3.47314 23.0843 3.40004 23.5535 3.64435 23.888L4.85565 23.0032ZM4.12257 22.7065C3.71438 22.7769 3.44053 23.1648 3.5109 23.573C3.58128 23.9812 3.96924 24.2551 4.37743 24.1847L4.12257 22.7065ZM8.075 22.1706L8.31329 22.8817C8.55886 22.7995 8.74461 22.5963 8.8046 22.3443C8.86459 22.0924 8.79035 21.8273 8.60822 21.6432L8.075 22.1706ZM6.8 6.87061L7.46058 6.51545C7.33797 6.28739 7.10639 6.13871 6.84798 6.12214C6.58958 6.10558 6.34091 6.22347 6.19018 6.434L6.8 6.87061ZM14.45 13.2456L14.2729 13.9744C14.4922 14.0277 14.7239 13.9794 14.9037 13.8428C15.0834 13.7063 15.1921 13.496 15.1996 13.2704L14.45 13.2456ZM25.925 9.42061L25.2988 9.83338C25.4376 10.0439 25.6729 10.1706 25.925 10.1706V9.42061ZM29.75 9.42061L30.374 9.83663C30.5275 9.60649 30.5418 9.31058 30.4113 9.06671C30.2807 8.82284 30.0266 8.67061 29.75 8.67061V9.42061ZM26.576 12.8296C26.3462 13.1742 26.4393 13.6399 26.784 13.8696C27.1286 14.0994 27.5943 14.0063 27.824 13.6616L26.576 12.8296ZM26.45 13.2456C26.45 17.5701 25.2151 21.2041 22.972 23.7463C20.7392 26.2768 17.4468 27.7956 13.175 27.7956V29.2956C17.8282 29.2956 21.5483 27.6269 24.0968 24.7387C26.6349 21.8621 27.95 17.8461 27.95 13.2456H26.45ZM13.175 27.7956C10.7696 27.7956 9.13709 27.1723 7.901 26.2977C6.642 25.4068 5.7496 24.2272 4.85565 23.0032L3.64435 23.888C4.53115 25.1021 5.55125 26.4725 7.03456 27.5221C8.54078 28.5879 10.4804 29.2956 13.175 29.2956V27.7956ZM4.37743 24.1847C4.41553 24.1781 4.44623 24.1695 4.44626 24.1695C4.45489 24.1672 4.46202 24.1651 4.46594 24.164C4.4742 24.1616 4.48206 24.1591 4.48774 24.1574C4.49976 24.1536 4.51441 24.1489 4.53014 24.1438C4.56219 24.1335 4.60656 24.119 4.66062 24.1012C4.76913 24.0655 4.92117 24.0151 5.10161 23.9551C5.4627 23.835 5.93999 23.6757 6.41563 23.5168C6.89136 23.3578 7.36577 23.199 7.72122 23.08C7.89895 23.0205 8.04696 22.971 8.15054 22.9363C8.20233 22.9189 8.24301 22.9053 8.27075 22.896C8.28461 22.8914 8.29525 22.8878 8.30241 22.8854C8.306 22.8842 8.30871 22.8833 8.31054 22.8827C8.31145 22.8824 8.31214 22.8821 8.31259 22.882C8.31282 22.8819 8.313 22.8818 8.31311 22.8818C8.31317 22.8818 8.31322 22.8818 8.31324 22.8818C8.31327 22.8818 8.31329 22.8817 8.075 22.1706C7.83671 21.4595 7.8367 21.4595 7.83667 21.4595C7.83664 21.4595 7.8366 21.4595 7.83654 21.4595C7.83643 21.4596 7.83625 21.4596 7.83603 21.4597C7.83557 21.4599 7.83489 21.4601 7.83398 21.4604C7.83216 21.461 7.82945 21.4619 7.82587 21.4631C7.81872 21.4655 7.8081 21.4691 7.79424 21.4737C7.76653 21.483 7.72588 21.4966 7.67412 21.5139C7.5706 21.5486 7.42267 21.5982 7.24502 21.6576C6.88971 21.7766 6.41557 21.9352 5.94018 22.0941C5.46471 22.253 4.98832 22.412 4.62837 22.5317C4.44828 22.5916 4.29797 22.6414 4.19168 22.6764C4.13834 22.6939 4.09721 22.7074 4.06931 22.7164C4.05508 22.721 4.04614 22.7238 4.04144 22.7253C4.03875 22.7261 4.03995 22.7257 4.04334 22.7247C4.04481 22.7243 4.04995 22.7228 4.05702 22.7209C4.06057 22.72 4.067 22.7183 4.07518 22.7163C4.08106 22.7149 4.09908 22.7106 4.12257 22.7065L4.37743 24.1847ZM8.60822 21.6432C4.61191 17.603 4.31167 11.6345 7.40982 7.30721L6.19018 6.434C2.67533 11.3433 3.02109 18.1277 7.54178 22.698L8.60822 21.6432ZM6.13942 7.22576C7.78074 10.2786 10.8617 13.1453 14.2729 13.9744L14.6271 12.5168C11.7313 11.813 8.95576 9.29645 7.46058 6.51545L6.13942 7.22576ZM15.1996 13.2704C15.2551 11.5927 15.8485 10.1849 16.8109 9.20142C17.7693 8.22207 19.1348 7.62061 20.825 7.62061V6.12061C18.7596 6.12061 16.9986 6.86498 15.7388 8.15229C14.4831 9.43552 13.7668 11.2151 13.7004 13.2208L15.1996 13.2704ZM20.825 7.62061C22.0067 7.62061 22.8956 7.84518 23.5914 8.21653C24.2856 8.58701 24.834 9.12829 25.2988 9.83338L26.5512 9.00783C25.9776 8.13758 25.2545 7.40387 24.2976 6.89319C23.3423 6.38336 22.2004 6.12061 20.825 6.12061V7.62061ZM25.925 10.1706H29.75V8.67061H25.925V10.1706ZM29.126 9.00458L26.576 12.8296L27.824 13.6616L30.374 9.83663L29.126 9.00458Z" fill="#222222"/>
</svg>
