<?xml version="1.0" encoding="utf-8"?>
<!-- Generator: Adobe Illustrator 21.1.0, SVG Export Plug-In . SVG Version: 6.00 Build 0)  -->
<svg version="1.1" id="Layer_1" xmlns="http://www.w3.org/2000/svg" xmlns:xlink="http://www.w3.org/1999/xlink" x="0px" y="0px"
	 viewBox="0 0 219.2 78.2" style="enable-background:new 0 0 219.2 78.2;" xml:space="preserve">
<style type="text/css">
	.st0{opacity:0.5;fill:url(#SVGID_1_);}
	.st1{opacity:0.5;fill:url(#SVGID_2_);}
	.st2{opacity:0.5;fill:url(#SVGID_3_);}
	.st3{opacity:0.5;fill:url(#SVGID_4_);}
	.st4{fill:#FB5883;}
	.st5{font-family:'Quicksand-Regular';}
	.st6{font-size:25.9286px;}
	.st7{fill:#939598;}
	.st8{font-family:'Quicksand-Light';}
	.st9{font-size:8.4707px;}
</style>
<g id="flower">
	<g>
		
			<linearGradient id="SVGID_1_" gradientUnits="userSpaceOnUse" x1="-405.4209" y1="-27.4672" x2="-356.3352" y2="-68.4906" gradientTransform="matrix(0.9918 -0.1276 0.1276 0.9918 420.7631 34.692)">
			<stop  offset="0" style="stop-color:#A00682"/>
			<stop  offset="0.1758" style="stop-color:#A00682"/>
			<stop  offset="0.6154" style="stop-color:#FF5368"/>
			<stop  offset="0.7139" style="stop-color:#FC5169"/>
			<stop  offset="0.7888" style="stop-color:#F2496B"/>
			<stop  offset="0.8558" style="stop-color:#E23C70"/>
			<stop  offset="0.9182" style="stop-color:#CB2976"/>
			<stop  offset="0.977" style="stop-color:#AE117E"/>
			<stop  offset="1" style="stop-color:#A00682"/>
		</linearGradient>
		<path class="st0" d="M25.1,68.8c0,0-17.4-12.4-12.1-32.6c4.2-16.1,6.2-21.7,2.6-34.1c7.3,12.7,10.5,14.6,16.3,18.5
			c5.8,3.9,12.5,19.3,7.5,29.6c12.5-8.6,21.1-0.6,33.7-15.3C74.5,70,45.1,77.1,25.1,68.8z"/>
		
			<linearGradient id="SVGID_2_" gradientUnits="userSpaceOnUse" x1="-74.1196" y1="-88.1699" x2="31.9247" y2="-86.613" gradientTransform="matrix(0.3845 -0.9231 -0.9231 -0.3845 -30.0145 -29.7166)">
			<stop  offset="0" style="stop-color:#A00682"/>
			<stop  offset="0.1758" style="stop-color:#A00682"/>
			<stop  offset="0.6154" style="stop-color:#FF5368"/>
			<stop  offset="0.7139" style="stop-color:#FC5169"/>
			<stop  offset="0.7888" style="stop-color:#F2496B"/>
			<stop  offset="0.8558" style="stop-color:#E23C70"/>
			<stop  offset="0.9182" style="stop-color:#CB2976"/>
			<stop  offset="0.977" style="stop-color:#AE117E"/>
			<stop  offset="1" style="stop-color:#A00682"/>
		</linearGradient>
		<path class="st1" d="M25.1,68.8c0,0,20.6-8.1,22.1-24.7c1.5-16.6,3.3-30.1,11.7-33.9c-19.4,3.4-32.5,19.6-36.3,28.3
			C18.7,47.3,18.6,61.5,25.1,68.8z"/>
		
			<linearGradient id="SVGID_3_" gradientUnits="userSpaceOnUse" x1="243.432" y1="64.2916" x2="304.1677" y2="13.5317" gradientTransform="matrix(-1 0 0 1 292.7636 0)">
			<stop  offset="0" style="stop-color:#A00682"/>
			<stop  offset="0.1758" style="stop-color:#A00682"/>
			<stop  offset="0.6154" style="stop-color:#FF5368"/>
			<stop  offset="0.7139" style="stop-color:#FC5169"/>
			<stop  offset="0.7888" style="stop-color:#F2496B"/>
			<stop  offset="0.8558" style="stop-color:#E23C70"/>
			<stop  offset="0.9182" style="stop-color:#CB2976"/>
			<stop  offset="0.977" style="stop-color:#AE117E"/>
			<stop  offset="1" style="stop-color:#A00682"/>
		</linearGradient>
		<path class="st2" d="M25.1,68.8c0,0-29.3-13.5-21.9-59.9c2,5.1,13.5,10.8,24.9,16.2c11.5,5.3,6.5,17.8,2.2,24.3
			c-4.3,6.5-1,13.3-1,13.3s0.4-9.4,8.6-9.6c8.2-0.2,18.4,1.8,21.5-6.1C57.8,58.8,45.8,74,25.1,68.8z"/>
	</g>
	
		<linearGradient id="SVGID_4_" gradientUnits="userSpaceOnUse" x1="-579.2265" y1="253.1919" x2="-436.7317" y2="255.284" gradientTransform="matrix(0.7717 -0.4749 0.5778 0.9388 321.799 -440.3749)">
		<stop  offset="0" style="stop-color:#A00682"/>
		<stop  offset="0.1758" style="stop-color:#A00682"/>
		<stop  offset="0.6154" style="stop-color:#FF5368"/>
		<stop  offset="0.7139" style="stop-color:#FC5169"/>
		<stop  offset="0.7888" style="stop-color:#F2496B"/>
		<stop  offset="0.8558" style="stop-color:#E23C70"/>
		<stop  offset="0.9182" style="stop-color:#CB2976"/>
		<stop  offset="0.977" style="stop-color:#AE117E"/>
		<stop  offset="1" style="stop-color:#A00682"/>
	</linearGradient>
	<path class="st3" d="M25.1,68.8c0,0,3.6-29.9,24-33.7c20.4-3.8,36.7-7.9,38.9-20c2,27.7-14.3,47.9-24,54.2
		C54.2,75.6,36.4,77.2,25.1,68.8z"/>
</g>
<g>
	<text transform="matrix(1 0 0 1 88.1556 54.1298)" class="st4 st5 st6">Best Clinic</text>
</g>
<g>
	<text transform="matrix(1 0 0 1 89.2962 65.847)" class="st7 st8 st9">Feel Pretty</text>
</g>
</svg>
