<?xml version="1.0" encoding="utf-8"?>
<!-- Generator: Adobe Illustrator 21.1.0, SVG Export Plug-In . SVG Version: 6.00 Build 0)  -->
<svg version="1.1" id="Layer_1" xmlns="http://www.w3.org/2000/svg" xmlns:xlink="http://www.w3.org/1999/xlink" x="0px" y="0px"
	 viewBox="0 0 283.8 238.8" style="enable-background:new 0 0 283.8 238.8;" xml:space="preserve">
<style type="text/css">
	.st0{opacity:0.5;fill:url(#SVGID_1_);}
	.st1{opacity:0.5;fill:url(#SVGID_2_);}
	.st2{opacity:0.5;fill:url(#SVGID_3_);}
	.st3{opacity:0.5;fill:url(#SVGID_4_);}
</style>
<g id="flower">
	<g>
		
			<linearGradient id="SVGID_1_" gradientUnits="userSpaceOnUse" x1="-382.3055" y1="103.2132" x2="-220.5907" y2="-31.94" gradientTransform="matrix(0.9918 -0.1276 0.1276 0.9918 409.3628 36.9664)">
			<stop  offset="0" style="stop-color:#A00682"/>
			<stop  offset="0.1758" style="stop-color:#A00682"/>
			<stop  offset="0.6154" style="stop-color:#FF5368"/>
			<stop  offset="0.7139" style="stop-color:#FC5169"/>
			<stop  offset="0.7888" style="stop-color:#F2496B"/>
			<stop  offset="0.8558" style="stop-color:#E23C70"/>
			<stop  offset="0.9182" style="stop-color:#CB2976"/>
			<stop  offset="0.977" style="stop-color:#AE117E"/>
			<stop  offset="1" style="stop-color:#A00682"/>
		</linearGradient>
		<path class="st0" d="M76.1,219.9c0,0-57.2-40.8-39.9-107.4C50.1,59.3,56.6,41.1,44.7,0c23.9,41.7,34.6,48,53.7,60.8
			c19.1,12.8,41.2,63.7,24.8,97.5c41.1-28.2,69.4-2,111.2-50.5C238.9,223.7,141.9,247.2,76.1,219.9z"/>
		
			<linearGradient id="SVGID_2_" gradientUnits="userSpaceOnUse" x1="-113.3293" y1="-56.0868" x2="236.0383" y2="-50.9574" gradientTransform="matrix(0.3845 -0.9231 -0.9231 -0.3845 60.5787 106.1579)">
			<stop  offset="0" style="stop-color:#A00682"/>
			<stop  offset="0.1758" style="stop-color:#A00682"/>
			<stop  offset="0.6154" style="stop-color:#FF5368"/>
			<stop  offset="0.7139" style="stop-color:#FC5169"/>
			<stop  offset="0.7888" style="stop-color:#F2496B"/>
			<stop  offset="0.8558" style="stop-color:#E23C70"/>
			<stop  offset="0.9182" style="stop-color:#CB2976"/>
			<stop  offset="0.977" style="stop-color:#AE117E"/>
			<stop  offset="1" style="stop-color:#A00682"/>
		</linearGradient>
		<path class="st1" d="M76.2,220c0,0,67.9-26.7,72.8-81.4c4.9-54.8,11-99.1,38.5-111.8C123.6,37.8,80.3,91.4,67.7,120.1
			C55.2,148.9,54.8,195.6,76.2,220z"/>
		
			<linearGradient id="SVGID_3_" gradientUnits="userSpaceOnUse" x1="160.8932" y1="204.95" x2="360.9896" y2="37.7194" gradientTransform="matrix(-1 0 0 1 316.8292 0)">
			<stop  offset="0" style="stop-color:#A00682"/>
			<stop  offset="0.1758" style="stop-color:#A00682"/>
			<stop  offset="0.6154" style="stop-color:#FF5368"/>
			<stop  offset="0.7139" style="stop-color:#FC5169"/>
			<stop  offset="0.7888" style="stop-color:#F2496B"/>
			<stop  offset="0.8558" style="stop-color:#E23C70"/>
			<stop  offset="0.9182" style="stop-color:#CB2976"/>
			<stop  offset="0.977" style="stop-color:#AE117E"/>
			<stop  offset="1" style="stop-color:#A00682"/>
		</linearGradient>
		<path class="st2" d="M76.1,219.9c0,0-96.5-44.4-72.2-197.3c6.7,16.8,44.5,35.7,82.2,53.2c37.7,17.5,21.6,58.6,7.4,80.2
			c-14.1,21.6-3.4,43.8-3.4,43.8s1.3-31,28.3-31.7c26.9-0.7,60.6,6.1,70.7-20.2C183.8,187,144.2,236.8,76.1,219.9z"/>
	</g>
	
		<linearGradient id="SVGID_4_" gradientUnits="userSpaceOnUse" x1="-579.1765" y1="410.8923" x2="-109.7214" y2="417.7848" gradientTransform="matrix(0.7717 -0.4749 0.5778 0.9388 272.4765 -429.1454)">
		<stop  offset="0" style="stop-color:#A00682"/>
		<stop  offset="0.1758" style="stop-color:#A00682"/>
		<stop  offset="0.6154" style="stop-color:#FF5368"/>
		<stop  offset="0.7139" style="stop-color:#FC5169"/>
		<stop  offset="0.7888" style="stop-color:#F2496B"/>
		<stop  offset="0.8558" style="stop-color:#E23C70"/>
		<stop  offset="0.9182" style="stop-color:#CB2976"/>
		<stop  offset="0.977" style="stop-color:#AE117E"/>
		<stop  offset="1" style="stop-color:#A00682"/>
	</linearGradient>
	<path class="st3" d="M76.1,219.9c0,0,11.9-98.5,79.1-111.1c67.2-12.6,121-25.9,128.1-65.9c6.4,91.2-47.1,157.8-79.1,178.6
		C172.1,242.2,113.5,247.5,76.1,219.9z"/>
</g>
</svg>
