<svg xmlns="http://www.w3.org/2000/svg" xmlns:xlink="http://www.w3.org/1999/xlink" viewBox="0 0 1100.909 486.196">
  <defs>
    <style>
      .cls-1 {
        fill: url(#linear-gradient);
      }
    </style>
    <linearGradient id="linear-gradient" x1="1.893" y1="0.629" x2="0" y2="0.638" gradientUnits="objectBoundingBox">
      <stop offset="0" stop-color="#c18fbb" stop-opacity="0.329"/>
      <stop offset="1" stop-color="#923f89" stop-opacity="0.851"/>
    </linearGradient>
  </defs>
  <g id="_404" data-name="404" transform="translate(0 -142.943)">
    <g id="Group_2" data-name="Group 2" transform="translate(0 142.943)">
      <g id="Group_1" data-name="Group 1">
        <path id="Path_1" data-name="Path 1" class="cls-1" d="M302.343,422.73H289.537V373.942c0-24.992-22.777-41.785-56.676-41.785s-56.674,16.793-56.674,41.785V422.73H140.992L196.2,206.188c2.367-5.9,2.567-12.362,2.55-18.045l0-.611c0-33.612-49.382-44.589-66.4-44.589-21.786,0-39.594,11.069-48.86,30.368a16.614,16.614,0,0,0-1.034,2.774C0,478.458,0,482.76,0,485.607,0,511.616,18.356,530.5,43.643,530.5h29.4a16.35,16.35,0,0,0,0-32.7h-29.4c-6.846,0-10.508-3.642-10.906-10.837,4.2-18.509,50.006-187.611,80.833-300.668,3.838-7.07,10.151-10.652,18.78-10.652,11.373,0,30.866,7.177,33.7,12.325l0,.275a40.556,40.556,0,0,1-.284,5.926,16.637,16.637,0,0,0-.925,2.647L104.107,435.04a16.352,16.352,0,0,0,15.845,20.388h72.585a16.351,16.351,0,0,0,16.35-16.35V373.94c0-5.436,12.4-9.085,23.973-9.085,11.785,0,23.975,3.4,23.975,9.085v65.139a16.351,16.351,0,0,0,16.35,16.35h29.157c4.842,0,9.087,10.044,9.087,21.494,0,10.779-6.5,19.72-9.422,20.874H273.186a16.35,16.35,0,0,0-16.35,16.35v73.2c0,4.2-10.476,9.085-23.975,9.085-13.906,0-23.973-5.425-23.973-9.085v-73.2a16.35,16.35,0,0,0-16.35-16.35H127.547a16.35,16.35,0,1,0,0,32.7h48.64v56.854c0,24.212,23.837,41.785,56.674,41.785,33.372,0,56.676-17.182,56.676-41.785V530.5h12.807c19.765,0,41.788-22,41.788-53.575C344.129,445.523,326.555,422.73,302.343,422.73Z" transform="translate(0 -142.943)"/>
      </g>
    </g>
    <g id="Group_4" data-name="Group 4" transform="translate(756.781 142.945)">
      <g id="Group_3" data-name="Group 3">
        <path id="Path_2" data-name="Path 2" class="cls-1" d="M654.3,422.729H641.495V373.941c0-24.992-22.777-41.785-56.676-41.785s-56.673,16.793-56.673,41.785v48.789H492.951l55.216-216.545c2.365-5.9,2.565-12.364,2.548-18.047l0-.6c0-33.612-49.382-44.589-66.4-44.589-21.786,0-39.6,11.069-48.862,30.368a16.613,16.613,0,0,0-1.034,2.774s-10.469,38.386-23.921,87.94a.008.008,0,0,1,0,.006L393.55,326.541c-41.6,153.8-41.6,155.782-41.6,159.069,0,26.009,18.356,44.888,43.645,44.888h132.54v56.854c0,24.212,23.835,41.785,56.673,41.785,33.371,0,56.676-17.182,56.676-41.785V530.5H654.3c19.765,0,41.787-22,41.787-53.573C696.089,445.522,678.513,422.729,654.3,422.729Zm-.335,75.067H625.145a16.35,16.35,0,0,0-16.35,16.35v73.2c0,4.2-10.476,9.085-23.975,9.085-13.906,0-23.973-5.425-23.973-9.085v-73.2A16.351,16.351,0,0,0,544.5,497.8H395.606c-6.844,0-10.508-3.643-10.908-10.831,1.456-6.378,9.033-35.812,40.426-151.879l16.937-62.494c11.835-43.6,21.36-78.548,23.472-86.3,3.838-7.07,10.151-10.652,18.782-10.652,11.373,0,30.864,7.177,33.7,12.325l0,.267a40.429,40.429,0,0,1-.286,5.939,16.742,16.742,0,0,0-.922,2.645L456.068,435.044a16.352,16.352,0,0,0,15.845,20.388H544.5a16.351,16.351,0,0,0,16.35-16.35V373.943c0-5.436,12.4-9.085,23.973-9.085,11.785,0,23.975,3.4,23.975,9.085v65.139a16.351,16.351,0,0,0,16.35,16.35H654.3c4.842,0,9.087,10.044,9.087,21.494C663.388,487.7,656.888,496.641,653.966,497.8Z" transform="translate(-351.954 -142.944)"/>
      </g>
    </g>
    <g id="Group_6" data-name="Group 6" transform="translate(349.504 199.838)">
      <g id="Group_5" data-name="Group 5">
        <path id="Path_3" data-name="Path 3" class="cls-1" d="M524.531,250.114A16.348,16.348,0,1,0,498.348,269.7a166.842,166.842,0,0,1,33.419,100.669c0,92.78-75.482,168.26-168.259,168.26s-168.262-75.482-168.262-168.26S270.727,202.1,363.507,202.1a166.763,166.763,0,0,1,101.239,33.853,16.351,16.351,0,1,0,19.7-26.1A199.235,199.235,0,0,0,363.505,169.4c-110.81,0-200.962,90.153-200.962,200.962s90.152,200.96,200.962,200.96,200.96-90.15,200.96-200.96A199.291,199.291,0,0,0,524.531,250.114Z" transform="translate(-162.543 -169.403)"/>
      </g>
    </g>
    <g id="Group_8" data-name="Group 8" transform="translate(458.343 308.675)">
      <g id="Group_7" data-name="Group 7">
        <path id="Path_4" data-name="Path 4" class="cls-1" d="M392.626,376.355l-64.212-64.212,64.212-64.212A16.352,16.352,0,0,0,369.5,224.809l-64.212,64.212-64.212-64.212a16.35,16.35,0,0,0-23.124,23.121l64.212,64.212L217.95,376.355a16.351,16.351,0,0,0,23.126,23.121l64.212-64.212L369.5,399.476a16.351,16.351,0,0,0,23.126-23.121Z" transform="translate(-213.16 -220.019)"/>
      </g>
    </g>
  </g>
</svg>
