<svg xmlns="http://www.w3.org/2000/svg" viewBox="0 0 39.931 39.382">
  <defs>
    <style>
      .cls-1 {
        fill: #974784;
      }
    </style>
  </defs>
  <path id="bed" class="cls-1" d="M38.816,13.9h-1.1A1.116,1.116,0,0,0,36.6,15.013v4.219H34.943a1.381,1.381,0,0,0-1.23-.757H27.485a.585.585,0,0,0,0,1.17h6.227a.211.211,0,0,1,.211.211v5.777H20.55V19.645h4.205a.585.585,0,1,0,0-1.17H20.441a1.382,1.382,0,0,0-1.272-.844H13.831a1.382,1.382,0,0,0-1.38,1.38v.22h-.507a1.648,1.648,0,0,0,.072-.482V17.683a1.654,1.654,0,0,0-1.652-1.652H7.5V3.333h3.276v.436h-.9A1.55,1.55,0,0,0,8.326,5.318v5.675a1.55,1.55,0,0,0,1.549,1.549h.9V14.3a.585.585,0,0,0,1.17,0V12.542h.9a1.55,1.55,0,0,0,1.549-1.549V5.318a1.55,1.55,0,0,0-1.549-1.549h-.9V3.333H12.2a.585.585,0,1,0,0-1.17h-.262a.584.584,0,0,0-1.168,0H7.5V1.381A1.383,1.383,0,0,0,6.115,0H5.544A1.383,1.383,0,0,0,4.163,1.381v14.65H3.815a1.644,1.644,0,0,0-.482.072V15.013A1.116,1.116,0,0,0,2.219,13.9h-1.1A1.116,1.116,0,0,0,0,15.013V25.151A1.652,1.652,0,0,0,1.571,26.8v.515a1.654,1.654,0,0,0,1.652,1.652h9.63l4.123,2.77-3.864,2.6a2.566,2.566,0,1,0,1.915,2.729l4.939-3.317L24.9,37.06a2.565,2.565,0,1,0,1.915-2.729l-3.864-2.6,4.123-2.77h9.63a1.654,1.654,0,0,0,1.652-1.652V26.8a1.652,1.652,0,0,0,1.571-1.648v-.769a.585.585,0,1,0-1.17,0v.769a.482.482,0,0,1-.482.482H35.093V20.4h3.186a.482.482,0,0,1,.482.482v.769a.585.585,0,0,0,1.17,0v-6.64A1.116,1.116,0,0,0,38.816,13.9Zm-25.6-2.905a.384.384,0,0,1-.379.379H9.874a.384.384,0,0,1-.379-.379v-3.4h3.722Zm0-5.675V6.425H9.5V5.318a.384.384,0,0,1,.379-.379h2.965a.384.384,0,0,1,.379.379Zm.4,13.694a.211.211,0,0,1,.211-.211H19.17a.211.211,0,0,1,.211.211v6.621H13.62V19.012ZM5.333,1.381a.211.211,0,0,1,.211-.211h.571a.211.211,0,0,1,.211.211v14.65H5.333ZM3.815,17.2h6.549a.483.483,0,0,1,.482.482V18.75a.483.483,0,0,1-.482.482H3.815a.483.483,0,0,1-.482-.482V17.684A.483.483,0,0,1,3.815,17.2ZM1.17,15.068h.993v4.164H1.652a1.755,1.755,0,0,0-.482.072Zm0,10.083V20.884a.482.482,0,0,1,.482-.482h10.8v5.231H1.652a.482.482,0,0,1-.482-.482Zm13.781,3.815h1.782l2.183,1.467-.891.6Zm5.014.762-1.134-.762H21.1Zm-7.493,8.484a1.4,1.4,0,1,1,1.4-1.4,1.4,1.4,0,0,1-1.4,1.4Zm16.381-1.4a1.4,1.4,0,1,1-1.4-1.4A1.4,1.4,0,0,1,28.854,36.816Zm-3.179-1.845a2.612,2.612,0,0,0-.567.816l-4.093-2.749.891-.6Zm-10.852.816a2.607,2.607,0,0,0-.567-.816l6.035-4.053L23.2,28.966H24.98L14.823,35.787ZM37.19,26.8v.512a.482.482,0,0,1-.482.482H3.222a.482.482,0,0,1-.482-.482V26.8Zm.577-7.571V15.068h.993V19.3a1.763,1.763,0,0,0-.482-.072Zm0,0"/>
</svg>
