<svg xmlns="http://www.w3.org/2000/svg" viewBox="0 0 35.293 50">
  <defs>
    <style>
      .cls-1 {
        fill: #974784;
      }
    </style>
  </defs>
  <path id="cancer" class="cls-1" d="M1.518,46.381l4.337-1.014,1.121,3.752a1.233,1.233,0,0,0,2.217.316L17.648,36.34,26.1,49.435a1.233,1.233,0,0,0,2.217-.316l1.121-3.752,4.337,1.014a1.234,1.234,0,0,0,1.316-1.869h0l-11.357-17.6,9.148-14.168a7.964,7.964,0,0,0,.917-1.965.732.732,0,0,0-1.4-.433,6.513,6.513,0,0,1-.748,1.6L22.866,25.557,18.52,18.82,29.379,1.987l1.9,2.391a6.511,6.511,0,0,1,1.308,2.891.733.733,0,1,0,1.442-.259,7.978,7.978,0,0,0-1.6-3.543L29.89.276A.747.747,0,0,0,29.317,0h-9.96a.732.732,0,1,0,0,1.465h8.616L24.24,7.251H11.056L7.323,1.465h8.616a.732.732,0,0,0,0-1.465H5.979a.744.744,0,0,0-.573.277L2.868,3.467a7.955,7.955,0,0,0-.457,9.273l9.148,14.168L.2,44.511a1.234,1.234,0,0,0,1.316,1.869ZM23.295,8.716l-5.647,8.753L12,8.716ZM3.641,11.945a6.491,6.491,0,0,1,.373-7.566l1.9-2.391,4.125,6.393,23.51,36.443-3.99-.932a1.234,1.234,0,0,0-1.462.848L27.06,48.217,3.641,11.945ZM12.43,28.259l4.346,6.73L8.235,48.217,7.2,44.738a1.235,1.235,0,0,0-1.462-.848l-3.99.932Zm0,0" transform="translate(-0.002 0)"/>
</svg>
