<svg xmlns="http://www.w3.org/2000/svg" viewBox="0 0 42.492 24">
  <defs>
    <style>
      .cls-1 {
        fill: #974784;
      }
    </style>
  </defs>
  <g id="heart" transform="translate(0 0)">
    <path id="Path_96" data-name="Path 96" class="cls-1" d="M0,9.062H1.416v1.416H0Zm0,0" transform="translate(0 1.848)"/>
    <path id="Path_97" data-name="Path 97" class="cls-1" d="M29.791,7.9a2.125,2.125,0,0,0-3.668.229l-.788,1.574a.708.708,0,0,1-1.171.144L22.417,7.812a2.125,2.125,0,0,0-3.272.055l-.623.778a.722.722,0,0,1-.564.266.7.7,0,0,1-.555-.283L15.625,6.258a2.124,2.124,0,0,0-3.6.324L10.413,9.807H2.353v1.416h8.936l2-4.007a.708.708,0,0,1,1.2-.108L16.27,9.477a2.111,2.111,0,0,0,1.666.85h.034a2.109,2.109,0,0,0,1.658-.8l.623-.778a.7.7,0,0,1,.541-.266.666.666,0,0,1,.55.247l1.748,2.039a2.121,2.121,0,0,0,1.611.742,2.2,2.2,0,0,0,.261-.016A2.119,2.119,0,0,0,26.6,10.34l.788-1.574a.708.708,0,0,1,1.223-.076L30.3,11.223h8.877V9.807H31.06Zm0,0" transform="translate(0.48 1.103)"/>
    <path id="Path_98" data-name="Path 98" class="cls-1" d="M34.116,9.062h1.416v1.416H34.116Zm0,0" transform="translate(6.959 1.848)"/>
    <path id="Path_99" data-name="Path 99" class="cls-1" d="M8.6,9.189a5.438,5.438,0,0,1,8.757-6.18l2.528,2.529,2.528-2.529a5.438,5.438,0,0,1,8.757,6.18l1.279.609A6.855,6.855,0,0,0,21.415,2.007L19.888,3.534,18.361,2.007A6.855,6.855,0,0,0,7.323,9.8Zm0,0" transform="translate(1.358 0)"/>
    <path id="Path_100" data-name="Path 100" class="cls-1" d="M19.175,19.669,11.2,10.934l-1.045.954,9.021,9.881L28.2,11.888l-1.045-.954Zm0,0" transform="translate(2.071 2.23)"/>
  </g>
</svg>
