<svg xmlns="http://www.w3.org/2000/svg" viewBox="0 0 35.293 37.81">
  <defs>
    <style>
      .cls-1 {
        fill: #974784;
      }
    </style>
  </defs>
  <g id="medical-history" transform="translate(0)">
    <path id="Path_117" data-name="Path 117" class="cls-1" d="M11.343,8.822h.63v.63a1.89,1.89,0,0,0,3.781,0v-.63h.63a1.89,1.89,0,1,0,0-3.781h-.63v-.63a1.89,1.89,0,0,0-3.781,0v.63h-.63a1.89,1.89,0,0,0,0,3.781Zm0-2.521H12.6a.63.63,0,0,0,.63-.63V4.411a.63.63,0,0,1,1.26,0v1.26a.63.63,0,0,0,.63.63h1.26a.63.63,0,1,1,0,1.26h-1.26a.63.63,0,0,0-.63.63V9.453a.63.63,0,0,1-1.26,0V8.192a.63.63,0,0,0-.63-.63h-1.26a.63.63,0,0,1,0-1.26Zm0,0"/>
    <path id="Path_118" data-name="Path 118" class="cls-1" d="M24.577,5.042H20.527a6.924,6.924,0,0,0-13.327,0H3.151A3.154,3.154,0,0,0,0,8.192V34.659A3.155,3.155,0,0,0,3.151,37.81H24.577a3.155,3.155,0,0,0,3.151-3.151V8.192a3.154,3.154,0,0,0-3.151-3.151ZM13.864,13.864a6.94,6.94,0,0,0,6.664-5.041h3.419V34.029H3.781V8.822H7.2a6.94,6.94,0,0,0,6.663,5.041Zm0-12.6A5.671,5.671,0,1,1,8.192,6.932a5.671,5.671,0,0,1,5.672-5.671Zm12.6,33.4a1.89,1.89,0,0,1-1.891,1.89H3.151a1.89,1.89,0,0,1-1.89-1.89V8.192A1.89,1.89,0,0,1,3.151,6.3H6.964c-.019.208-.032.417-.032.63s.013.422.032.63H3.781a1.26,1.26,0,0,0-1.26,1.26V34.029a1.26,1.26,0,0,0,1.26,1.26H23.946a1.26,1.26,0,0,0,1.26-1.26V8.823a1.26,1.26,0,0,0-1.26-1.26H20.764c.019-.208.032-.417.032-.63s-.013-.422-.032-.63h3.813a1.89,1.89,0,0,1,1.891,1.89Zm0,0"/>
    <path id="Path_119" data-name="Path 119" class="cls-1" d="M6.3,20.166a.63.63,0,0,0,0-1.26V16.384H9.453a.63.63,0,0,0,0-1.26H6.3a1.26,1.26,0,0,0-1.26,1.26v2.521a1.26,1.26,0,0,0,1.26,1.26Zm0,0"/>
    <path id="Path_120" data-name="Path 120" class="cls-1" d="M8.638,17.83a.63.63,0,0,0-.891.891l1.26,1.261a.631.631,0,0,0,.891,0l3.151-3.151a.63.63,0,0,0-.891-.891L9.453,18.644Zm0,0"/>
    <path id="Path_121" data-name="Path 121" class="cls-1" d="M21.426,17.015h.63a.63.63,0,1,0,0-1.26h-.63a.63.63,0,1,0,0,1.26Zm0,0"/>
    <path id="Path_122" data-name="Path 122" class="cls-1" d="M15.754,17.015h3.151a.63.63,0,0,0,0-1.26H15.754a.63.63,0,1,0,0,1.26Zm0,0"/>
    <path id="Path_123" data-name="Path 123" class="cls-1" d="M15.754,19.535H20.8a.63.63,0,1,0,0-1.26H15.754a.63.63,0,1,0,0,1.26Zm0,0"/>
    <path id="Path_124" data-name="Path 124" class="cls-1" d="M6.3,26.467a.63.63,0,0,0,0-1.26V22.686H9.453a.63.63,0,0,0,0-1.26H6.3a1.26,1.26,0,0,0-1.26,1.26v2.521a1.26,1.26,0,0,0,1.26,1.26Zm0,0"/>
    <path id="Path_125" data-name="Path 125" class="cls-1" d="M12.158,22.24,9.453,24.946l-.815-.815a.63.63,0,0,0-.891.891l1.26,1.26a.63.63,0,0,0,.891,0l3.151-3.151a.63.63,0,0,0-.891-.891Zm0,0"/>
    <path id="Path_126" data-name="Path 126" class="cls-1" d="M22.056,22.056h-.63a.63.63,0,1,0,0,1.26h.63a.63.63,0,1,0,0-1.26Zm0,0"/>
    <path id="Path_127" data-name="Path 127" class="cls-1" d="M15.754,23.316h3.151a.63.63,0,0,0,0-1.26H15.754a.63.63,0,1,0,0,1.26Zm0,0"/>
    <path id="Path_128" data-name="Path 128" class="cls-1" d="M15.754,25.837H20.8a.63.63,0,1,0,0-1.26H15.754a.63.63,0,1,0,0,1.26Zm0,0"/>
    <path id="Path_129" data-name="Path 129" class="cls-1" d="M6.3,32.769a.63.63,0,0,0,0-1.26V28.988H9.453a.63.63,0,0,0,0-1.26H6.3a1.26,1.26,0,0,0-1.26,1.26v2.521a1.26,1.26,0,0,0,1.26,1.26Zm0,0"/>
    <path id="Path_130" data-name="Path 130" class="cls-1" d="M12.158,28.542,9.453,31.248l-.815-.815a.63.63,0,0,0-.891.891l1.26,1.26a.63.63,0,0,0,.891,0l3.151-3.151a.63.63,0,0,0-.891-.891Zm0,0"/>
    <path id="Path_131" data-name="Path 131" class="cls-1" d="M22.056,28.358h-.63a.63.63,0,1,0,0,1.26h.63a.63.63,0,1,0,0-1.26Zm0,0"/>
    <path id="Path_132" data-name="Path 132" class="cls-1" d="M15.754,29.618h3.151a.63.63,0,0,0,0-1.26H15.754a.63.63,0,1,0,0,1.26Zm0,0"/>
    <path id="Path_133" data-name="Path 133" class="cls-1" d="M15.754,32.139H20.8a.63.63,0,1,0,0-1.26H15.754a.63.63,0,1,0,0,1.26Zm0,0"/>
    <path id="Path_134" data-name="Path 134" class="cls-1" d="M33.651,8.192H30.626a1.78,1.78,0,0,0-1.638,1.891v20.8a.622.622,0,0,0,.035.207l2.052,5.906A1.1,1.1,0,0,0,33.2,37l2.055-5.914a.618.618,0,0,0,.035-.206v-20.8a1.78,1.78,0,0,0-1.638-1.891Zm-.368,24.723a4.545,4.545,0,0,0-2.291,0L30.5,31.508h3.269ZM30.248,15.754V13.864h3.781v1.891Zm2.521,14.494V22.056a.63.63,0,0,0-1.26,0v8.192h-1.26V17.015h1.26v2.521a.63.63,0,1,0,1.26,0V17.015h1.26V30.248Zm-2.142-20.8h3.025c.179,0,.378.27.378.63V12.6H30.248V10.083C30.248,9.722,30.447,9.453,30.626,9.453ZM32.139,36.21l-.731-2.1a3.5,3.5,0,0,1,1.463,0Zm0,0"/>
  </g>
</svg>
