<svg xmlns="http://www.w3.org/2000/svg" viewBox="0 0 35.293 34.748">
  <defs>
    <style>
      .cls-1 {
        fill: #974784;
      }
    </style>
  </defs>
  <g id="stethoscope" transform="translate(0 0)">
    <path id="Path_115" data-name="Path 115" class="cls-1" d="M32.816,19.813a.619.619,0,1,1-.619-.619A.619.619,0,0,1,32.816,19.813Zm0,0"/>
    <path id="Path_116" data-name="Path 116" class="cls-1" d="M32.816,16.78V14.4a5.461,5.461,0,0,0-5.263-5.628,5.483,5.483,0,0,0-5.263,5.461l.037.006H22.29v12.2a6.809,6.809,0,0,1-6.5,7.065,6.809,6.809,0,0,1-6.5-7.065V24.767c.681,0,1.238-.557,1.238-1.858V20.866c.21-.044.415-.093.619-.149a8.1,8.1,0,0,0,6.192-7.665v-.669h-.619l-.031-8.674A3.091,3.091,0,0,0,14.142.675a6.441,6.441,0,0,0-.687-.043,1.234,1.234,0,1,0-.012,1.244,5.015,5.015,0,0,1,.662.062,1.848,1.848,0,0,1,1.344,1.771l.031,8.674H14.86v.687a5.545,5.545,0,0,1-3.994,5.213,6.1,6.1,0,0,1-1.858.291H8.978a6.271,6.271,0,0,1-1.888-.291c-2.322-.737-4.613-2.792-4.613-5.213v-.687H1.858V3.715A1.853,1.853,0,0,1,3.232,1.932a4.866,4.866,0,0,1,.662-.062,1.225,1.225,0,0,0,1.059.607A1.238,1.238,0,1,0,3.882.632,6.441,6.441,0,0,0,3.2.675,3.088,3.088,0,0,0,.619,3.715v8.668H0v.669a8.1,8.1,0,0,0,6.192,7.665c.2.056.409.105.619.149v2.043c0,1.3.557,1.858,1.238,1.858v1.678c0,4.576,3.473,8.3,7.74,8.3s7.74-3.727,7.74-8.3V14.272a4.6,4.6,0,0,1,1.232-3.015,3.845,3.845,0,0,1,2.792-1.245,4.225,4.225,0,0,1,4.025,4.39V16.78a3.1,3.1,0,1,0,1.238,0ZM32.2,21.671a1.858,1.858,0,1,1,1.858-1.858A1.858,1.858,0,0,1,32.2,21.671Zm0,0"/>
  </g>
</svg>
