<svg xmlns="http://www.w3.org/2000/svg" viewBox="0 0 45.334 45.333">
  <defs>
    <style>
      .cls-1 {
        fill: #974784;
      }
    </style>
  </defs>
  <path id="injecting-syringe" class="cls-1" d="M45.108,6.994,41.723,3.61l-1.7-1.7h0L38.34.226A.77.77,0,0,0,37.25,1.316l1.127,1.127-6,5.755L30.764,6.589h0L29,4.821A.77.77,0,1,0,27.907,5.91l1.224,1.224-19,19a.77.77,0,0,0,0,1.089l1.463,1.463L10.079,30.2a.77.77,0,0,0,0,1.089l1.334,1.333L9.9,34.138l1.3,1.3,1.515-1.515,1.333,1.333a.77.77,0,0,0,1.089,0l1.515-1.515L18.112,35.2a.77.77,0,0,0,1.089,0l19-19,1.224,1.224a.77.77,0,0,0,1.089-1.089l-1.769-1.769-1.881-1.881,6-5.755,1.15,1.15a.77.77,0,0,0,1.089-1.089ZM14.588,33.621l-2.875-2.875.971-.971,2.875,2.875Zm4.068-.053-1.461-1.461h0L13.229,28.14h0l-1.462-1.462,1.889-1.889,1.7,1.7a.578.578,0,0,0,.817-.817l-1.7-1.7,2.144-2.144,3.445,3.446a.578.578,0,0,0,.817-.817l-3.445-3.446L19.1,19.338l1.7,1.7a.578.578,0,1,0,.817-.817l-1.7-1.7,2.144-2.144,3.445,3.445A.578.578,0,0,0,26.325,19L22.88,15.56l1.671-1.671,1.7,1.7a.578.578,0,1,0,.817-.817l-1.7-1.7,2.144-2.144,3.446,3.445a.578.578,0,0,0,.817-.817L28.328,10.11l1.889-1.889,6.891,6.891ZM41.778,5.843l-6,5.754-2.31-2.31,6-5.755.456.456ZM9.957,34.9l.478.478L.919,44.893,0,45.333l.421-.9Z" transform="translate(0 0)"/>
</svg>
