<svg xmlns="http://www.w3.org/2000/svg" viewBox="0 0 34.928 39.382">
  <defs>
    <style>
      .cls-1 {
        fill: #974784;
      }
    </style>
  </defs>
  <g id="doctor" transform="translate(-2.227)">
    <g id="Group_151" data-name="Group 151">
      <path id="Path_114" data-name="Path 114" class="cls-1" d="M37.13,37.365l-1.742-10.2a2.9,2.9,0,0,0-2.035-2.3l-4.7-1.418a5.241,5.241,0,0,0-3.637-4.552c.149-.165.287-.33.413-.491A9.121,9.121,0,0,0,27.3,14.347h.363a1.712,1.712,0,0,0,1.71-1.71V11.76a1.722,1.722,0,0,0-.886-1.5V8.157a.577.577,0,1,0-1.153,0v2.366a3.555,3.555,0,0,0-.767.222.579.579,0,0,0-.081.036c-.062.028-.124.058-.186.092V6.226A2.331,2.331,0,0,0,23.969,3.9H22.377a2.393,2.393,0,0,0-1.51.539l-.156.128a1.611,1.611,0,0,1-2.039,0l-.156-.128A2.393,2.393,0,0,0,17,3.9H15.413a2.331,2.331,0,0,0-2.329,2.329v4.648c-.062-.034-.124-.063-.186-.092a.578.578,0,0,0-.081-.036,3.556,3.556,0,0,0-.767-.222V4.54a3.391,3.391,0,0,1,3.387-3.387h8.507A3.39,3.39,0,0,1,27.331,4.54v.907a.577.577,0,1,0,1.153,0V4.54A4.545,4.545,0,0,0,23.945,0H15.437A4.545,4.545,0,0,0,10.9,4.54v5.725a1.722,1.722,0,0,0-.886,1.5v.877a1.712,1.712,0,0,0,1.71,1.71h.363A9.12,9.12,0,0,0,13.951,18.4c.126.161.264.325.413.49a5.26,5.26,0,0,0-3.636,4.552l-4.7,1.418a2.9,2.9,0,0,0-2.035,2.3l-.707,4.142a.577.577,0,0,0,1.137.194l.707-4.142a1.756,1.756,0,0,1,1.231-1.394l4.346-1.311V25.8a2.885,2.885,0,0,0-2.193,1.816,2.925,2.925,0,0,0-.171.783l-.42,5.392a1.466,1.466,0,0,0,1.461,1.58H10.1a.577.577,0,1,0,0-1.153H9.385a.312.312,0,0,1-.311-.337l.42-5.392a1.771,1.771,0,0,1,.1-.474A1.744,1.744,0,0,1,11.23,26.9h.108a1.728,1.728,0,0,1,1.61,1.033,1.769,1.769,0,0,1,.135.554l.42,5.392a.312.312,0,0,1-.312.337h-.719a.577.577,0,1,0,0,1.153h.719a1.466,1.466,0,0,0,1.461-1.58l-.42-5.392a2.921,2.921,0,0,0-.223-.914,2.855,2.855,0,0,0-2.149-1.689V24.307l1.982-.6c.18.38.538,1.2,1.246,2.97.714,1.786,1.6,4.074,2.451,6.3q.009.028.021.055c.568,1.485,1.118,2.94,1.589,4.2a.577.577,0,0,0,1.08,0c.471-1.255,1.022-2.71,1.589-4.2a.574.574,0,0,0,.021-.055c.85-2.224,1.736-4.511,2.45-6.3s1.067-2.594,1.247-2.974l1.982.6v3.406a2.984,2.984,0,1,0,1.153,0V24.655l4.346,1.311a1.756,1.756,0,0,1,1.231,1.394l1.742,10.2a.573.573,0,0,1-.564.669H3.953a.573.573,0,0,1-.564-.669l.575-3.366A.577.577,0,0,0,2.827,34l-.575,3.366a1.726,1.726,0,0,0,1.7,2.016H35.429a1.726,1.726,0,0,0,1.7-2.017ZM27.338,11.7a2.475,2.475,0,0,1,.557-.075.59.59,0,0,0,.282-.067.546.546,0,0,1,.041.2v.877a.557.557,0,0,1-.557.557h-.323V11.7Zm-15.294,1.5h-.323a.557.557,0,0,1-.557-.557V11.76a.547.547,0,0,1,.041-.2.588.588,0,0,0,.282.067,2.571,2.571,0,0,1,.557.075v1.495Zm1.153.647V12.325a.809.809,0,0,0,1.041-.776V6.226A1.177,1.177,0,0,1,15.413,5.05H17a1.236,1.236,0,0,1,.78.278l.156.128a2.765,2.765,0,0,0,3.5,0l.156-.128a1.236,1.236,0,0,1,.78-.278h1.592a1.177,1.177,0,0,1,1.175,1.175v5.324a.809.809,0,0,0,1.041.776V13.84a7.459,7.459,0,0,1-1.661,3.849,7.6,7.6,0,0,1-1.382,1.37.578.578,0,0,0-.051.039,5.622,5.622,0,0,1-6.8,0,.585.585,0,0,0-.051-.039,7.609,7.609,0,0,1-1.382-1.37A7.459,7.459,0,0,1,13.2,13.84Zm10.272,9.317-3.778,2.824-3.778-2.824a2.735,2.735,0,0,0,.585-1.633V20.6a6.773,6.773,0,0,0,6.387,0v.93A2.735,2.735,0,0,0,23.469,23.158Zm-8.519-.644a1.577,1.577,0,0,0-.972-.049l-.041.011-1.992.6a4.1,4.1,0,0,1,3.4-3.231v1.679A1.525,1.525,0,0,1,14.95,22.514Zm1.565,4.63,0-.008-.087-.219-.015-.039-.083-.209-.006-.015-.247-.618-.017-.043-.067-.167-.024-.06-.064-.158-.019-.046-.112-.276-.03-.073-.042-.1L15.654,25l-.017-.041-.013-.031q-.1-.243-.19-.458v0l-.093-.222-.046-.109,3.249,2.429-1.358.577-.007,0-.567.241Zm1.376,3.531-.344-.89q-.27-.7-.516-1.327l.215-.091.879,1.022ZM19.7,35.362a.574.574,0,0,0-.059-.1c-.261-.689-.591-1.56-.957-2.519l.538-2.948h.934l.538,2.948C20.313,33.75,19.968,34.659,19.7,35.362Zm.672-6.717H19.008l-.646-.751,1.33-.565,1.33.565Zm1.46,1.14-.344.89-.235-1.286.879-1.022.215.091Q22.1,29.089,21.834,29.785Zm2.209-5.542-.088.21-.012.028-.092.221-.006.015-.084.2-.016.038-.019.047-.038.094-.048.117-.016.038-.124.3-.02.049-.063.157-.025.062-.067.166-.019.047-.244.61-.008.021-.083.208-.016.039-.087.22,0,0-.1.243-.567-.241-.006,0-1.359-.577,3.249-2.429Zm1.4-1.767h0a1.576,1.576,0,0,0-1.012.038,1.525,1.525,0,0,1-.394-.989V19.845a4.065,4.065,0,0,1,3.4,3.233Zm4.476,8.166a1.831,1.831,0,1,1-1.831-1.831A1.833,1.833,0,0,1,29.921,30.642Z"/>
    </g>
  </g>
</svg>
