<svg xmlns="http://www.w3.org/2000/svg" viewBox="0 0 29.11 43.187">
  <defs>
    <style>
      .cls-1 {
        fill: #974784;
      }
    </style>
  </defs>
  <g id="patient" transform="translate(0 0)">
    <path id="Path_111" data-name="Path 111" class="cls-1" d="M188.569,342.8a.8.8,0,0,0,.681,0c1.7-.807,3.335-2.344,3.333-4.323a2.158,2.158,0,0,0-3.678-1.521,2.159,2.159,0,0,0-3.678,1.528c0,2.02,1.728,3.554,3.342,4.316Zm-.413-4.757a.908.908,0,0,0,.772.424.894.894,0,0,0,.723-.422.89.89,0,0,1,1.667.433c0,1.363-1.227,2.453-2.411,3.078-1.2-.619-2.413-1.72-2.414-3.073A.891.891,0,0,1,188.156,338.043Zm0,0" transform="translate(-169.603 -307.954)"/>
    <path id="Path_112" data-name="Path 112" class="cls-1" d="M182.555,382.561a.633.633,0,0,0,.633.633h11.464a1.617,1.617,0,0,0,1.615-1.615v-9.618a.633.633,0,0,0-1.266,0v3.049h-3.3a1.616,1.616,0,0,0-1.615,1.615v5.3h-6.9a.633.633,0,0,0-.633.633Zm8.8-5.937a.35.35,0,0,1,.349-.35H195v5.3a.35.35,0,0,1-.35.35h-3.3Zm0,0" transform="translate(-167.157 -340.007)"/>
    <path id="Path_113" data-name="Path 113" class="cls-1" d="M29.109,28.393a5.646,5.646,0,0,0-3.339-5.156l-.012,0L18.195,20.3V18.529a5.928,5.928,0,0,0,2.246-3.921,2.826,2.826,0,0,0,2.538-2.669,2.518,2.518,0,0,0-.652-1.674V7.84a7.84,7.84,0,1,0-15.681,0v2.479a2.424,2.424,0,0,0-.652,1.619,2.826,2.826,0,0,0,2.538,2.669,5.864,5.864,0,0,0,2.374,4.015V20.3L3.339,23.237A5.645,5.645,0,0,0,0,28.393V41.572a1.617,1.617,0,0,0,1.615,1.615H13.078a.633.633,0,0,0,0-1.265h-6.9v-5.3A1.617,1.617,0,0,0,4.561,35h-3.3v-6.61a4.383,4.383,0,0,1,2.551-3.984l5.262-2.04c.884,1.888,3.4,2.839,5.472,2.839s4.589-.95,5.473-2.84l5.27,2.041a4.417,4.417,0,0,1,2.551,3.984V29a.633.633,0,1,0,1.265,0v-.609ZM1.265,36.268h3.3a.35.35,0,0,1,.349.35v5.3h-3.3a.35.35,0,0,1-.349-.349ZM21.714,11.938a1.538,1.538,0,0,1-1.223,1.373V10.568A1.529,1.529,0,0,1,21.714,11.938ZM8.482,13.311a1.538,1.538,0,0,1-1.223-1.373,1.594,1.594,0,0,1,1.223-1.332ZM8.509,9.3a3.307,3.307,0,0,0-.6.166V7.84a6.575,6.575,0,1,1,13.15,0V9.418a3.255,3.255,0,0,0-.57-.142,1.522,1.522,0,0,0-.026-.374c-.083-.328-.422-.631-1.908-2.227a1.127,1.127,0,0,0-1.5-.238A12.194,12.194,0,0,1,9.689,8.422a1.125,1.125,0,0,0-1.18.876Zm1.238,4.55V9.694a13.512,13.512,0,0,0,7.907-2.133c.91.977,1.412,1.5,1.572,1.7v4.592a4.669,4.669,0,0,1-4.656,4.662h-.011A4.693,4.693,0,0,1,9.747,13.848Zm7.182,5.435V20.5a3.241,3.241,0,0,1-4.758,0V19.323a6.467,6.467,0,0,0,2.392.453,5.941,5.941,0,0,0,2.366-.493ZM11.1,22.872a2.6,2.6,0,0,1-.835-.962l1.1-.426a4.51,4.51,0,0,0,6.379,0l1.1.426c-.9,1.782-4.773,3.016-7.743.963Zm0,0"/>
  </g>
</svg>
